<svg width="180" height="29" viewBox="0 0 180 29" fill="none" xmlns="http://www.w3.org/2000/svg">
<g clip-path="url(#clip0)">
<path d="M22.3262 18.7325H21.877V11.4103C21.877 10.2956 20.9701 9.38879 19.8555 9.38879H13.6113V6.10949C13.6113 5.73736 13.3096 5.43566 12.9375 5.43566H12.1738V4.55119C13.8688 4.14573 14.0292 2.28259 13.0222 1.26731L11.9819 0.20298C11.7176 -0.0674499 11.282 -0.067405 11.0178 0.203294L10.0054 1.24054C9.58655 1.64785 9.35601 2.19311 9.35601 2.77714C9.35601 3.67625 9.92495 4.33566 10.8262 4.55124V5.43571H10.0625C9.69041 5.43571 9.38872 5.7374 9.38872 6.10953V9.38883H3.14453C2.02988 9.38883 1.12305 10.2957 1.12305 11.4103V18.7326H0.673828C0.301695 18.7326 0 19.0343 0 19.4064V22.3263C0 22.6985 0.301695 23.0002 0.673828 23.0002H22.3262C22.6983 23.0002 23 22.6985 23 22.3263V19.4064C23 19.0342 22.6983 18.7325 22.3262 18.7325ZM10.7036 2.77709C10.7036 2.559 10.7905 2.35528 10.9481 2.20353C10.9593 2.19279 10.9543 2.19769 11.5003 1.63828L12.0604 2.2113C12.2171 2.36808 12.2963 2.56866 12.2963 2.77705C12.2963 2.9013 12.2963 3.27937 11.5 3.27937C10.7036 3.27937 10.7036 2.90135 10.7036 2.77709ZM10.7363 6.78332H12.2637V9.38879H10.7363V6.78332ZM3.14453 10.7364H19.8555C20.227 10.7364 20.5293 11.0387 20.5293 11.4103V13.5793C20.375 13.6582 20.2348 13.7013 20.125 13.7013C19.7988 13.7013 19.3355 13.3488 19.1639 13.1799C19.0702 13.0862 18.2198 12.2638 17.25 12.2638C16.2802 12.2638 15.4298 13.0861 15.3378 13.1781C15.1645 13.3488 14.7012 13.7013 14.375 13.7013C14.0488 13.7013 13.5855 13.3488 13.4139 13.1799C13.3202 13.0862 12.4698 12.2638 11.5 12.2638C10.5302 12.2638 9.67977 13.0861 9.58781 13.1781C9.41455 13.3488 8.95118 13.7013 8.625 13.7013C8.29882 13.7013 7.8355 13.3488 7.66394 13.1799C7.57019 13.0862 6.71982 12.2638 5.75 12.2638C4.78018 12.2638 3.92977 13.0861 3.83781 13.1781C3.66455 13.3488 3.20118 13.7013 2.875 13.7013C2.76521 13.7013 2.62501 13.6582 2.4707 13.5793V11.4103C2.4707 11.0387 2.77298 10.7364 3.14453 10.7364ZM2.4707 15.0042C2.60731 15.0336 2.74221 15.0489 2.875 15.0489C3.84486 15.0489 4.69523 14.2266 4.78719 14.1346C4.96045 13.9639 5.42382 13.6114 5.75 13.6114C6.07618 13.6114 6.5395 13.9639 6.71106 14.1328C6.80481 14.2266 7.65518 15.0489 8.625 15.0489C9.59482 15.0489 10.4452 14.2266 10.5372 14.1346C10.7105 13.9639 11.1738 13.6114 11.5 13.6114C11.8262 13.6114 12.2895 13.9639 12.4611 14.1328C12.5548 14.2266 13.4052 15.0489 14.375 15.0489C15.3448 15.0489 16.1952 14.2266 16.2872 14.1346C16.4605 13.9639 16.9238 13.6114 17.25 13.6114C17.5762 13.6114 18.0395 13.9639 18.2111 14.1328C18.3048 14.2266 19.1552 15.0489 20.125 15.0489C20.2578 15.0489 20.3927 15.0336 20.5293 15.0042V18.7325H2.4707V15.0042ZM21.6523 21.6525H1.34766V20.0802H21.6523V21.6525Z" fill="#FF2626"/>
</g>
<path d="M35.0088 8.816V13.928H43.1208V16.568H35.0088V23H31.8888V6.2H44.1528V8.816H35.0088ZM51.3796 10.04C53.2676 10.04 54.7076 10.496 55.6996 11.408C56.7076 12.304 57.2116 13.664 57.2116 15.488V23H54.3796V21.44C54.0116 22 53.4836 22.432 52.7956 22.736C52.1236 23.024 51.3076 23.168 50.3476 23.168C49.3876 23.168 48.5476 23.008 47.8276 22.688C47.1076 22.352 46.5476 21.896 46.1476 21.32C45.7636 20.728 45.5716 20.064 45.5716 19.328C45.5716 18.176 45.9956 17.256 46.8436 16.568C47.7076 15.864 49.0596 15.512 50.8996 15.512H54.2116V15.32C54.2116 14.424 53.9396 13.736 53.3956 13.256C52.8676 12.776 52.0756 12.536 51.0196 12.536C50.2996 12.536 49.5876 12.648 48.8836 12.872C48.1956 13.096 47.6116 13.408 47.1316 13.808L45.9556 11.624C46.6276 11.112 47.4356 10.72 48.3796 10.448C49.3236 10.176 50.3236 10.04 51.3796 10.04ZM50.9716 20.984C51.7236 20.984 52.3876 20.816 52.9636 20.48C53.5556 20.128 53.9716 19.632 54.2116 18.992V17.504H51.1156C49.3876 17.504 48.5236 18.072 48.5236 19.208C48.5236 19.752 48.7396 20.184 49.1716 20.504C49.6036 20.824 50.2036 20.984 50.9716 20.984ZM63.9178 12.056C64.7818 10.712 66.3018 10.04 68.4778 10.04V12.896C68.2218 12.848 67.9898 12.824 67.7818 12.824C66.6138 12.824 65.7018 13.168 65.0458 13.856C64.3898 14.528 64.0618 15.504 64.0618 16.784V23H61.0618V10.184H63.9178V12.056ZM83.5479 10.184V23H80.6919V21.368C80.2119 21.944 79.6119 22.392 78.8919 22.712C78.1719 23.016 77.3959 23.168 76.5639 23.168C74.8519 23.168 73.4999 22.696 72.5079 21.752C71.5319 20.792 71.0439 19.376 71.0439 17.504V10.184H74.0439V17.096C74.0439 18.248 74.2999 19.112 74.8119 19.688C75.3399 20.248 76.0839 20.528 77.0439 20.528C78.1159 20.528 78.9639 20.2 79.5879 19.544C80.2279 18.872 80.5479 17.912 80.5479 16.664V10.184H83.5479ZM94.7478 10.04C96.3638 10.04 97.6598 10.512 98.6358 11.456C99.6118 12.4 100.1 13.8 100.1 15.656V23H97.0998V16.04C97.0998 14.92 96.8358 14.08 96.3078 13.52C95.7798 12.944 95.0278 12.656 94.0518 12.656C92.9478 12.656 92.0758 12.992 91.4358 13.664C90.7958 14.32 90.4758 15.272 90.4758 16.52V23H87.4758V5.192H90.4758V11.672C90.9718 11.144 91.5798 10.744 92.2998 10.472C93.0358 10.184 93.8518 10.04 94.7478 10.04Z" fill="white"/>
<path d="M116.418 23.168C115.09 23.168 113.898 22.888 112.842 22.328C111.786 21.768 110.962 20.992 110.37 20C109.778 18.992 109.482 17.856 109.482 16.592C109.482 15.328 109.778 14.2 110.37 13.208C110.962 12.216 111.778 11.44 112.818 10.88C113.874 10.32 115.074 10.04 116.418 10.04C117.682 10.04 118.786 10.296 119.73 10.808C120.69 11.32 121.41 12.056 121.89 13.016L119.586 14.36C119.218 13.768 118.754 13.328 118.194 13.04C117.65 12.736 117.05 12.584 116.394 12.584C115.274 12.584 114.346 12.952 113.61 13.688C112.874 14.408 112.506 15.376 112.506 16.592C112.506 17.808 112.866 18.784 113.586 19.52C114.322 20.24 115.258 20.6 116.394 20.6C117.05 20.6 117.65 20.456 118.194 20.168C118.754 19.864 119.218 19.416 119.586 18.824L121.89 20.168C121.394 21.128 120.666 21.872 119.706 22.4C118.762 22.912 117.666 23.168 116.418 23.168ZM129.38 10.04C131.268 10.04 132.708 10.496 133.7 11.408C134.708 12.304 135.212 13.664 135.212 15.488V23H132.38V21.44C132.012 22 131.484 22.432 130.796 22.736C130.124 23.024 129.308 23.168 128.348 23.168C127.388 23.168 126.548 23.008 125.828 22.688C125.108 22.352 124.548 21.896 124.148 21.32C123.764 20.728 123.572 20.064 123.572 19.328C123.572 18.176 123.996 17.256 124.844 16.568C125.708 15.864 127.06 15.512 128.9 15.512H132.212V15.32C132.212 14.424 131.94 13.736 131.396 13.256C130.868 12.776 130.076 12.536 129.02 12.536C128.3 12.536 127.588 12.648 126.884 12.872C126.196 13.096 125.612 13.408 125.132 13.808L123.956 11.624C124.628 11.112 125.436 10.72 126.38 10.448C127.324 10.176 128.324 10.04 129.38 10.04ZM128.972 20.984C129.724 20.984 130.388 20.816 130.964 20.48C131.556 20.128 131.972 19.632 132.212 18.992V17.504H129.116C127.388 17.504 126.524 18.072 126.524 19.208C126.524 19.752 126.74 20.184 127.172 20.504C127.604 20.824 128.204 20.984 128.972 20.984ZM144.294 17.504L142.062 19.616V23H139.062V5.192H142.062V15.944L148.278 10.184H151.878L146.526 15.56L152.382 23H148.734L144.294 17.504ZM165.829 16.664C165.829 16.872 165.813 17.168 165.781 17.552H155.725C155.901 18.496 156.357 19.248 157.093 19.808C157.845 20.352 158.773 20.624 159.877 20.624C161.285 20.624 162.445 20.16 163.357 19.232L164.965 21.08C164.389 21.768 163.661 22.288 162.781 22.64C161.901 22.992 160.909 23.168 159.805 23.168C158.397 23.168 157.157 22.888 156.085 22.328C155.013 21.768 154.181 20.992 153.589 20C153.013 18.992 152.725 17.856 152.725 16.592C152.725 15.344 153.005 14.224 153.565 13.232C154.141 12.224 154.933 11.44 155.941 10.88C156.949 10.32 158.085 10.04 159.349 10.04C160.597 10.04 161.709 10.32 162.685 10.88C163.677 11.424 164.445 12.2 164.989 13.208C165.549 14.2 165.829 15.352 165.829 16.664ZM159.349 12.44C158.389 12.44 157.573 12.728 156.901 13.304C156.245 13.864 155.845 14.616 155.701 15.56H162.973C162.845 14.632 162.453 13.88 161.797 13.304C161.141 12.728 160.325 12.44 159.349 12.44ZM172.67 23.168C171.63 23.168 170.614 23.032 169.622 22.76C168.63 22.488 167.838 22.144 167.246 21.728L168.398 19.448C168.974 19.832 169.662 20.144 170.462 20.384C171.278 20.608 172.078 20.72 172.862 20.72C174.654 20.72 175.55 20.248 175.55 19.304C175.55 18.856 175.318 18.544 174.854 18.368C174.406 18.192 173.678 18.024 172.67 17.864C171.614 17.704 170.75 17.52 170.078 17.312C169.422 17.104 168.846 16.744 168.35 16.232C167.87 15.704 167.63 14.976 167.63 14.048C167.63 12.832 168.134 11.864 169.142 11.144C170.166 10.408 171.542 10.04 173.27 10.04C174.15 10.04 175.03 10.144 175.91 10.352C176.79 10.544 177.51 10.808 178.07 11.144L176.918 13.424C175.83 12.784 174.606 12.464 173.246 12.464C172.366 12.464 171.694 12.6 171.23 12.872C170.782 13.128 170.558 13.472 170.558 13.904C170.558 14.384 170.798 14.728 171.278 14.936C171.774 15.128 172.534 15.312 173.558 15.488C174.582 15.648 175.422 15.832 176.078 16.04C176.734 16.248 177.294 16.6 177.758 17.096C178.238 17.592 178.478 18.296 178.478 19.208C178.478 20.408 177.958 21.368 176.918 22.088C175.878 22.808 174.462 23.168 172.67 23.168Z" fill="#FF0000"/>
<defs>
<clipPath id="clip0">
<rect width="23" height="23" fill="white"/>
</clipPath>
</defs>
</svg>
