<svg width="32" height="32" viewBox="0 0 32 32" fill="none" xmlns="http://www.w3.org/2000/svg">
<path d="M26.8059 4.68422C20.6723 -1.56322 10.7292 -1.56172 4.59747 4.68766C-1.53428 10.937 -1.5328 21.0677 4.60084 27.3151C10.7345 33.5625 20.6775 33.561 26.8092 27.3117C29.7541 24.3103 31.408 20.24 31.4071 15.9962C31.4062 11.7531 29.7511 7.68409 26.8059 4.68422ZM23.7824 22.2875C23.7817 22.2882 23.781 22.2889 23.7803 22.2896V22.2843L22.9846 23.0896C21.9556 24.1513 20.4569 24.5881 19.0325 24.2416C17.5974 23.8502 16.2331 23.2272 14.9914 22.3963C13.8378 21.6451 12.7687 20.767 11.8036 19.7776C10.9155 18.8794 10.1177 17.8932 9.42182 16.8336C8.66068 15.6935 8.05823 14.4515 7.6316 13.1429C7.14251 11.6057 7.5478 9.91885 8.67853 8.78559L9.61026 7.83628C9.86931 7.57116 10.2902 7.57022 10.5504 7.83416C10.5511 7.83484 10.5518 7.83553 10.5525 7.83628L13.4943 10.8336C13.7545 11.0975 13.7554 11.5264 13.4964 11.7915C13.4957 11.7922 13.495 11.7928 13.4943 11.7936L11.7669 13.5536C11.2712 14.0531 11.2089 14.8468 11.6203 15.4203C12.2451 16.2939 12.9365 17.116 13.688 17.879C14.5259 18.7363 15.4368 19.5163 16.41 20.2097C16.9723 20.6093 17.7347 20.5419 18.2211 20.0497L19.8909 18.3217C20.15 18.0565 20.5709 18.0556 20.831 18.3195C20.8317 18.3202 20.8324 18.3209 20.8331 18.3217L23.7802 21.3297C24.0405 21.5935 24.0414 22.0223 23.7824 22.2875Z" fill="white"/>
</svg>
